# xmcd
#
# Track frame offsets:
# 150
# 15826
# 31487
#
# Disc length: 627 seconds
#
#
# Revision: 0
# Processed by: cddbd v1.5.2PL0 Copyright (c) Steve Scherf et al.
# Submitted via: FreeRIP 2.40 
#
DISCID=14027103
DTITLE=Talib Kweli - Listen [CD Single)
DYEAR=2005
DGENRE=Hip-Hop
TTITLE0=Listen (Radio Edit)
TTITLE1=Listen (Main Edit)
TTITLE2=Listen (Instrumental)
EXTD=
EXTT0=
EXTT1=
EXTT2=
PLAYORDER=
